<svg width="905" height="357" viewBox="0 0 905 357" fill="none" xmlns="http://www.w3.org/2000/svg">
<path d="M69 102.1C69 80.0087 86.9086 62.1 109 62.1H261C283.091 62.1 301 80.0086 301 102.1V254.9C301 276.991 283.091 294.9 261 294.9H109C86.9086 294.9 69 276.991 69 254.9V102.1Z" fill="url(#paint0_linear_42_1104)"/>
<path d="M135.167 74.7377L123.4 87.898L135.167 101.169L146.7 87.898L135.167 74.7377Z" fill="white"/>
<path d="M151.407 85.1332L140.934 73.3H156.349L167.057 85.1332H151.407Z" fill="white"/>
<path d="M167.057 90.5521H151.407L140.345 102.828H156.349L167.057 90.5521Z" fill="white"/>
<path d="M160.114 137.111L146.347 126.162L132.343 137.111L146.347 148.28L160.114 137.111Z" fill="white"/>
<path d="M149.053 152.704L161.762 142.751C161.84 164.132 161.268 208.865 161.644 216.736C162.115 226.579 162.939 233.546 167.293 241.84C171.528 249.908 173.882 252.567 176.942 255.774C179.774 258.743 190.121 265.506 194.005 266.612C197.888 267.718 207.202 268.834 210.832 268.492C215.539 268.05 221.384 266.502 224.835 265.506C222.874 267.755 217.869 273.071 213.539 276.344C209.208 279.618 201.614 281.542 198.359 282.095C197.025 282.501 192.451 283.201 184.826 282.759C177.201 282.316 169.489 278.519 166.822 276.566C165.92 276.086 163.056 274.243 157.761 268.492C152.207 262.461 149.681 252.789 149.053 248.144V152.704Z" fill="white"/>
<path d="M144.228 152.704L130.931 142.751C130.931 171.099 130.955 228.945 131.049 233.546C131.167 239.296 134.14 244.425 136.697 248.807C138.698 252.236 143.954 256.659 146.464 258.318C146.111 257.028 145.072 253.907 144.699 251.572C144.346 249.36 144.15 245.748 144.228 244.273V152.704Z" fill="white"/>
<path d="M215.774 227.132C219.878 223.312 228.068 215.666 228.13 215.521C228.13 215.52 228.13 215.52 228.13 215.52C228.13 215.518 228.13 215.518 228.13 215.521C228.117 215.677 227.701 223.145 223.423 229.012C219.94 233.789 215.696 237.195 214.009 238.301C214.794 236.2 216.245 231.024 215.774 227.132Z" fill="white"/>
<path d="M247.193 227.132L234.014 214.524C233.269 217.989 231.049 226.026 228.13 230.449C224.482 235.979 220.011 240.955 208.714 246.706C199.677 251.307 184.238 250.614 177.648 249.692C180.276 253.047 187.391 260.198 194.828 261.968C204.125 264.179 219.585 264.782 231.425 256.659C243.193 248.586 247.39 233.878 247.193 227.132Z" fill="white"/>
<path d="M357.72 233.12V261H354.08V233.12H357.72ZM372.964 238.72C374.857 238.72 376.51 239.133 377.924 239.96C379.364 240.787 380.43 241.827 381.124 243.08V239.08H384.804V261.48C384.804 263.48 384.377 265.253 383.524 266.8C382.67 268.373 381.444 269.6 379.844 270.48C378.27 271.36 376.43 271.8 374.324 271.8C371.444 271.8 369.044 271.12 367.124 269.76C365.204 268.4 364.07 266.547 363.724 264.2H367.324C367.724 265.533 368.55 266.6 369.804 267.4C371.057 268.227 372.564 268.64 374.324 268.64C376.324 268.64 377.95 268.013 379.204 266.76C380.484 265.507 381.124 263.747 381.124 261.48V256.88C380.404 258.16 379.337 259.227 377.924 260.08C376.51 260.933 374.857 261.36 372.964 261.36C371.017 261.36 369.244 260.88 367.644 259.92C366.07 258.96 364.83 257.613 363.924 255.88C363.017 254.147 362.564 252.173 362.564 249.96C362.564 247.72 363.017 245.76 363.924 244.08C364.83 242.373 366.07 241.053 367.644 240.12C369.244 239.187 371.017 238.72 372.964 238.72ZM381.124 250C381.124 248.347 380.79 246.907 380.124 245.68C379.457 244.453 378.55 243.52 377.404 242.88C376.284 242.213 375.044 241.88 373.684 241.88C372.324 241.88 371.084 242.2 369.964 242.84C368.844 243.48 367.95 244.413 367.284 245.64C366.617 246.867 366.284 248.307 366.284 249.96C366.284 251.64 366.617 253.107 367.284 254.36C367.95 255.587 368.844 256.533 369.964 257.2C371.084 257.84 372.324 258.16 373.684 258.16C375.044 258.16 376.284 257.84 377.404 257.2C378.55 256.533 379.457 255.587 380.124 254.36C380.79 253.107 381.124 251.653 381.124 250ZM401.635 238.68C404.302 238.68 406.462 239.493 408.115 241.12C409.768 242.72 410.595 245.04 410.595 248.08V261H406.995V248.6C406.995 246.413 406.448 244.747 405.355 243.6C404.262 242.427 402.768 241.84 400.875 241.84C398.955 241.84 397.422 242.44 396.275 243.64C395.155 244.84 394.595 246.587 394.595 248.88V261H390.955V239.08H394.595V242.2C395.315 241.08 396.288 240.213 397.515 239.6C398.768 238.987 400.142 238.68 401.635 238.68ZM418.421 235.52C417.728 235.52 417.141 235.28 416.661 234.8C416.181 234.32 415.941 233.733 415.941 233.04C415.941 232.347 416.181 231.76 416.661 231.28C417.141 230.8 417.728 230.56 418.421 230.56C419.088 230.56 419.648 230.8 420.101 231.28C420.581 231.76 420.821 232.347 420.821 233.04C420.821 233.733 420.581 234.32 420.101 234.8C419.648 235.28 419.088 235.52 418.421 235.52ZM420.181 239.08V261H416.541V239.08H420.181ZM430.825 242.08V255C430.825 256.067 431.051 256.827 431.505 257.28C431.958 257.707 432.745 257.92 433.865 257.92H436.545V261H433.265C431.238 261 429.718 260.533 428.705 259.6C427.691 258.667 427.185 257.133 427.185 255V242.08H424.345V239.08H427.185V233.56H430.825V239.08H436.545V242.08H430.825ZM460.955 249.2C460.955 249.893 460.915 250.627 460.835 251.4H443.315C443.448 253.56 444.182 255.253 445.515 256.48C446.875 257.68 448.515 258.28 450.435 258.28C452.008 258.28 453.315 257.92 454.355 257.2C455.422 256.453 456.168 255.467 456.595 254.24H460.515C459.928 256.347 458.755 258.067 456.995 259.4C455.235 260.707 453.048 261.36 450.435 261.36C448.355 261.36 446.488 260.893 444.835 259.96C443.208 259.027 441.928 257.707 440.995 256C440.062 254.267 439.595 252.267 439.595 250C439.595 247.733 440.048 245.747 440.955 244.04C441.862 242.333 443.128 241.027 444.755 240.12C446.408 239.187 448.302 238.72 450.435 238.72C452.515 238.72 454.355 239.173 455.955 240.08C457.555 240.987 458.782 242.24 459.635 243.84C460.515 245.413 460.955 247.2 460.955 249.2ZM457.195 248.44C457.195 247.053 456.888 245.867 456.275 244.88C455.662 243.867 454.822 243.107 453.755 242.6C452.715 242.067 451.555 241.8 450.275 241.8C448.435 241.8 446.862 242.387 445.555 243.56C444.275 244.733 443.542 246.36 443.355 248.44H457.195ZM495.944 233.12L486.864 250.48V261H483.224V250.48L474.104 233.12H478.144L485.024 247.24L491.904 233.12H495.944ZM509.343 261.36C507.29 261.36 505.423 260.893 503.743 259.96C502.09 259.027 500.783 257.707 499.823 256C498.89 254.267 498.423 252.267 498.423 250C498.423 247.76 498.903 245.787 499.863 244.08C500.85 242.347 502.183 241.027 503.863 240.12C505.543 239.187 507.423 238.72 509.503 238.72C511.583 238.72 513.463 239.187 515.143 240.12C516.823 241.027 518.143 242.333 519.103 244.04C520.09 245.747 520.583 247.733 520.583 250C520.583 252.267 520.076 254.267 519.063 256C518.076 257.707 516.73 259.027 515.023 259.96C513.316 260.893 511.423 261.36 509.343 261.36ZM509.343 258.16C510.65 258.16 511.876 257.853 513.023 257.24C514.17 256.627 515.09 255.707 515.783 254.48C516.503 253.253 516.863 251.76 516.863 250C516.863 248.24 516.516 246.747 515.823 245.52C515.13 244.293 514.223 243.387 513.103 242.8C511.983 242.187 510.77 241.88 509.463 241.88C508.13 241.88 506.903 242.187 505.783 242.8C504.69 243.387 503.81 244.293 503.143 245.52C502.476 246.747 502.143 248.24 502.143 250C502.143 251.787 502.463 253.293 503.103 254.52C503.77 255.747 504.65 256.667 505.743 257.28C506.836 257.867 508.036 258.16 509.343 258.16ZM544.809 239.08V261H541.169V257.76C540.476 258.88 539.502 259.76 538.249 260.4C537.022 261.013 535.662 261.32 534.169 261.32C532.462 261.32 530.929 260.973 529.569 260.28C528.209 259.56 527.129 258.493 526.329 257.08C525.556 255.667 525.169 253.947 525.169 251.92V239.08H528.769V251.44C528.769 253.6 529.316 255.267 530.409 256.44C531.502 257.587 532.996 258.16 534.889 258.16C536.836 258.16 538.369 257.56 539.489 256.36C540.609 255.16 541.169 253.413 541.169 251.12V239.08H544.809ZM554.595 242.64C555.235 241.387 556.142 240.413 557.315 239.72C558.515 239.027 559.968 238.68 561.675 238.68V242.44H560.715C556.635 242.44 554.595 244.653 554.595 249.08V261H550.955V239.08H554.595V242.64ZM611.581 233.12L603.501 261H599.421L592.941 238.56L586.221 261L582.181 261.04L574.381 233.12H578.261L584.341 256.76L591.061 233.12H595.141L601.541 256.68L607.661 233.12H611.581ZM625.124 261.36C623.071 261.36 621.204 260.893 619.524 259.96C617.871 259.027 616.564 257.707 615.604 256C614.671 254.267 614.204 252.267 614.204 250C614.204 247.76 614.684 245.787 615.644 244.08C616.631 242.347 617.964 241.027 619.644 240.12C621.324 239.187 623.204 238.72 625.284 238.72C627.364 238.72 629.244 239.187 630.924 240.12C632.604 241.027 633.924 242.333 634.884 244.04C635.871 245.747 636.364 247.733 636.364 250C636.364 252.267 635.858 254.267 634.844 256C633.858 257.707 632.511 259.027 630.804 259.96C629.098 260.893 627.204 261.36 625.124 261.36ZM625.124 258.16C626.431 258.16 627.658 257.853 628.804 257.24C629.951 256.627 630.871 255.707 631.564 254.48C632.284 253.253 632.644 251.76 632.644 250C632.644 248.24 632.298 246.747 631.604 245.52C630.911 244.293 630.004 243.387 628.884 242.8C627.764 242.187 626.551 241.88 625.244 241.88C623.911 241.88 622.684 242.187 621.564 242.8C620.471 243.387 619.591 244.293 618.924 245.52C618.258 246.747 617.924 248.24 617.924 250C617.924 251.787 618.244 253.293 618.884 254.52C619.551 255.747 620.431 256.667 621.524 257.28C622.618 257.867 623.818 258.16 625.124 258.16ZM644.79 242.64C645.43 241.387 646.337 240.413 647.51 239.72C648.71 239.027 650.164 238.68 651.87 238.68V242.44H650.91C646.83 242.44 644.79 244.653 644.79 249.08V261H641.15V239.08H644.79V242.64ZM668.312 261L659.712 251.32V261H656.072V231.4H659.712V248.8L668.152 239.08H673.232L662.912 250L673.272 261H668.312ZM685.578 242.08H680.978V261H677.338V242.08H674.498V239.08H677.338V237.52C677.338 235.067 677.965 233.28 679.218 232.16C680.498 231.013 682.538 230.44 685.338 230.44V233.48C683.738 233.48 682.605 233.8 681.938 234.44C681.298 235.053 680.978 236.08 680.978 237.52V239.08H685.578V242.08ZM693.462 231.4V261H689.822V231.4H693.462ZM709.226 261.36C707.173 261.36 705.306 260.893 703.626 259.96C701.973 259.027 700.666 257.707 699.706 256C698.773 254.267 698.306 252.267 698.306 250C698.306 247.76 698.786 245.787 699.746 244.08C700.733 242.347 702.066 241.027 703.746 240.12C705.426 239.187 707.306 238.72 709.386 238.72C711.466 238.72 713.346 239.187 715.026 240.12C716.706 241.027 718.026 242.333 718.986 244.04C719.973 245.747 720.466 247.733 720.466 250C720.466 252.267 719.959 254.267 718.946 256C717.959 257.707 716.613 259.027 714.906 259.96C713.199 260.893 711.306 261.36 709.226 261.36ZM709.226 258.16C710.533 258.16 711.759 257.853 712.906 257.24C714.053 256.627 714.973 255.707 715.666 254.48C716.386 253.253 716.746 251.76 716.746 250C716.746 248.24 716.399 246.747 715.706 245.52C715.013 244.293 714.106 243.387 712.986 242.8C711.866 242.187 710.653 241.88 709.346 241.88C708.013 241.88 706.786 242.187 705.666 242.8C704.573 243.387 703.693 244.293 703.026 245.52C702.359 246.747 702.026 248.24 702.026 250C702.026 251.787 702.346 253.293 702.986 254.52C703.653 255.747 704.533 256.667 705.626 257.28C706.719 257.867 707.919 258.16 709.226 258.16ZM754.452 239.08L747.612 261H743.852L738.572 243.6L733.292 261H729.532L722.652 239.08H726.372L731.412 257.48L736.852 239.08H740.572L745.892 257.52L750.852 239.08H754.452Z" fill="#9155FD"/>
<path d="M372.63 173H359.882V114.066H372.63V173ZM373.779 95.2578C373.779 97.3477 373.048 99.124 371.585 100.587C370.122 101.98 368.346 102.677 366.256 102.677C364.166 102.677 362.39 101.945 360.927 100.482C359.534 99.0195 358.837 97.278 358.837 95.2578C358.837 93.168 359.568 91.3916 361.031 89.9287C362.494 88.4658 364.236 87.7344 366.256 87.7344C368.346 87.7344 370.122 88.4658 371.585 89.9287C373.048 91.3916 373.779 93.168 373.779 95.2578ZM411.814 173.522C407.913 173.522 404.5 172.687 401.574 171.015C398.648 169.273 396.21 166.974 394.26 164.118C392.309 161.262 390.881 157.988 389.976 154.296C389.07 150.604 388.617 146.738 388.617 142.697C388.617 137.264 389.349 132.701 390.812 129.009C392.344 125.317 394.26 122.321 396.559 120.022C398.927 117.654 401.539 115.982 404.396 115.007C407.321 114.032 410.177 113.544 412.964 113.544C415.123 113.544 417.178 113.788 419.129 114.275C421.079 114.763 422.856 115.46 424.458 116.365V127.441C423.343 126.188 422.02 125.177 420.487 124.411C419.024 123.645 417.422 123.262 415.681 123.262C413.591 123.262 411.675 123.819 409.934 124.934C408.262 125.979 406.834 127.407 405.649 129.218C404.465 131.029 403.56 133.154 402.933 135.592C402.306 138.03 401.992 140.607 401.992 143.324C401.992 146.111 402.306 148.758 402.933 151.266C403.629 153.704 404.57 155.828 405.754 157.64C407.008 159.451 408.471 160.914 410.143 162.028C411.884 163.073 413.8 163.596 415.89 163.596C417.631 163.596 419.199 163.247 420.592 162.551C421.985 161.785 423.274 160.809 424.458 159.625V170.492C422.786 171.328 420.87 172.06 418.711 172.687C416.551 173.244 414.253 173.522 411.814 173.522ZM441.386 114.066L441.281 173C441.003 177.249 440.132 180.872 438.669 183.867C437.276 186.863 435.465 189.336 433.235 191.286C431.006 193.237 428.429 194.63 425.503 195.466C422.577 196.302 419.442 196.72 416.099 196.72C412.198 196.72 408.331 196.023 404.5 194.63C400.738 193.306 397.604 191.042 395.096 187.838L402.41 180.628C403.107 181.812 403.978 182.787 405.022 183.554C406.137 184.32 407.252 184.912 408.366 185.33C409.55 185.748 410.7 186.027 411.814 186.166C412.999 186.375 414.044 186.479 414.949 186.479C419.268 186.479 422.647 185.226 425.085 182.718C427.523 180.21 428.742 175.926 428.742 169.865V120.022L430.101 114.066H441.386ZM473.047 114.066L474.405 120.022V173H461.762V114.066H473.047ZM505.648 120.545C506.833 121.729 507.738 123.122 508.365 124.725C509.062 126.257 509.549 127.894 509.828 129.636C510.176 131.308 510.385 133.014 510.455 134.756C510.525 136.497 510.56 138.204 510.56 139.876V170.91V173H497.812V140.921C497.812 138.552 497.707 136.288 497.498 134.129C497.289 131.969 496.801 130.054 496.035 128.382C495.269 126.71 494.224 125.421 492.9 124.516C491.577 123.54 489.731 123.053 487.362 123.053C486.387 123.053 485.063 123.227 483.392 123.575C481.789 123.854 480.222 124.341 478.689 125.038V116.992C480.57 116.017 482.59 115.181 484.75 114.484C486.979 113.788 489.139 113.439 491.229 113.439C494.363 113.439 497.01 114.101 499.17 115.425C501.329 116.679 503.489 118.385 505.648 120.545ZM540.653 173H527.905V114.066H540.653V173ZM541.803 95.2578C541.803 97.3477 541.071 99.124 539.608 100.587C538.146 101.98 536.369 102.677 534.279 102.677C532.189 102.677 530.413 101.945 528.95 100.482C527.557 99.0195 526.86 97.278 526.86 95.2578C526.86 93.168 527.592 91.3916 529.055 89.9287C530.518 88.4658 532.259 87.7344 534.279 87.7344C536.369 87.7344 538.146 88.4658 539.608 89.9287C541.071 91.3916 541.803 93.168 541.803 95.2578ZM575.24 155.132C575.24 157.5 575.554 159.346 576.181 160.67C576.808 161.993 577.678 163.004 578.793 163.7C579.977 164.397 581.266 164.85 582.659 165.059C584.122 165.198 585.655 165.268 587.257 165.268V173C586.351 173.139 585.446 173.244 584.54 173.313C583.774 173.383 582.833 173.418 581.719 173.418C580.674 173.488 579.629 173.522 578.584 173.522C577.539 173.522 576.459 173.488 575.345 173.418C574.3 173.348 573.394 173.244 572.628 173.104C570.259 172.687 568.413 171.676 567.09 170.074C565.766 168.402 564.756 166.591 564.06 164.641C563.433 162.62 563.015 160.67 562.806 158.789C562.666 156.908 562.597 155.445 562.597 154.4V122.635H554.864V114.066H562.597V97.3477H575.24V114.066H584.645V122.635H575.24V155.132ZM614.738 173H601.99V114.066H614.738V173ZM615.888 95.2578C615.888 97.3477 615.156 99.124 613.693 100.587C612.23 101.98 610.454 102.677 608.364 102.677C606.274 102.677 604.498 101.945 603.035 100.482C601.642 99.0195 600.945 97.278 600.945 95.2578C600.945 93.168 601.677 91.3916 603.14 89.9287C604.603 88.4658 606.344 87.7344 608.364 87.7344C610.454 87.7344 612.23 88.4658 613.693 89.9287C615.156 91.3916 615.888 93.168 615.888 95.2578ZM660.192 113.753C664.024 113.962 667.507 114.902 670.642 116.574C673.776 118.176 676.389 120.336 678.479 123.053C680.638 125.7 682.31 128.8 683.494 132.353C684.678 135.905 685.271 139.702 685.271 143.742C685.271 147.783 684.644 151.579 683.39 155.132C682.205 158.615 680.534 161.68 678.374 164.327C676.215 166.905 673.567 168.994 670.433 170.597C667.298 172.199 663.884 173.139 660.192 173.418V163.387C663.675 162.62 666.497 160.426 668.656 156.804C670.885 153.181 672 148.827 672 143.742C672 141.165 671.721 138.761 671.164 136.532C670.676 134.233 669.91 132.178 668.865 130.367C667.82 128.556 666.566 127.058 665.104 125.874C663.641 124.69 662.004 123.924 660.192 123.575V113.753ZM631.039 143.533C631.039 139.493 631.631 135.731 632.815 132.248C634 128.765 635.672 125.735 637.831 123.157C640.06 120.51 642.707 118.385 645.772 116.783C648.838 115.181 652.216 114.206 655.908 113.857V123.575C652.425 124.341 649.639 126.536 647.549 130.158C645.459 133.781 644.414 138.134 644.414 143.22C644.414 145.797 644.658 148.235 645.146 150.534C645.703 152.833 646.469 154.888 647.444 156.699C648.42 158.51 649.604 160.008 650.997 161.192C652.46 162.377 654.097 163.108 655.908 163.387V173.418C652.077 173.139 648.629 172.199 645.563 170.597C642.498 168.925 639.886 166.765 637.727 164.118C635.567 161.471 633.895 158.371 632.711 154.818C631.596 151.266 631.039 147.504 631.039 143.533ZM712.961 114.066L714.319 120.022V173H701.676V114.066H712.961ZM745.562 120.545C746.747 121.729 747.652 123.122 748.279 124.725C748.976 126.257 749.464 127.894 749.742 129.636C750.09 131.308 750.299 133.014 750.369 134.756C750.439 136.497 750.474 138.204 750.474 139.876V170.91V173H737.726V140.921C737.726 138.552 737.621 136.288 737.412 134.129C737.203 131.969 736.715 130.054 735.949 128.382C735.183 126.71 734.138 125.421 732.814 124.516C731.491 123.54 729.645 123.053 727.276 123.053C726.301 123.053 724.978 123.227 723.306 123.575C721.703 123.854 720.136 124.341 718.604 125.038V116.992C720.484 116.017 722.505 115.181 724.664 114.484C726.893 113.788 729.053 113.439 731.143 113.439C734.277 113.439 736.924 114.101 739.084 115.425C741.243 116.679 743.403 118.385 745.562 120.545Z" fill="url(#paint1_linear_42_1104)"/>
<defs>
<linearGradient id="paint0_linear_42_1104" x1="90.2" y1="56.1" x2="225.8" y2="294.9" gradientUnits="userSpaceOnUse">
<stop offset="0.0398221" stop-color="#AE98D6"/>
<stop offset="1" stop-color="#9155FD"/>
</linearGradient>
<linearGradient id="paint1_linear_42_1104" x1="537.611" y1="62" x2="546.911" y2="252.697" gradientUnits="userSpaceOnUse">
<stop offset="0.0660662" stop-color="#AE98D6"/>
<stop offset="1" stop-color="#9155FD"/>
</linearGradient>
</defs>
</svg>
