<svg width="884" height="217" viewBox="0 0 884 217" fill="none" xmlns="http://www.w3.org/2000/svg">
<path d="M66 52C66 35.4314 79.4315 22 96 22H210C226.569 22 240 35.4315 240 52V166.6C240 183.169 226.569 196.6 210 196.6H96C79.4315 196.6 66 183.169 66 166.6V52Z" fill="url(#paint0_linear_44_2098)"/>
<path d="M115.626 31.4782L106.8 41.3484L115.626 51.3016L124.275 41.3484L115.626 31.4782Z" fill="white"/>
<path d="M127.805 39.2749L119.95 30.4H131.512L139.543 39.2749H127.805Z" fill="white"/>
<path d="M139.543 43.3391H127.805L119.509 52.5457H131.512L139.543 43.3391Z" fill="white"/>
<path d="M134.336 78.258L124.01 70.0467L113.507 78.258L124.01 86.6353L134.336 78.258Z" fill="white"/>
<path d="M126.04 89.953L135.571 82.4881C135.63 98.5238 135.201 132.074 135.483 137.977C135.836 145.359 136.454 150.584 139.719 156.805C142.896 162.856 144.662 164.85 146.956 167.256C149.081 169.482 156.841 174.555 159.754 175.384C162.666 176.214 169.652 177.05 172.374 176.794C175.904 176.462 180.288 175.301 182.877 174.555C181.406 176.241 177.652 180.228 174.404 182.683C171.156 185.138 165.461 186.582 163.019 186.996C162.019 187.3 158.589 187.826 152.87 187.494C147.151 187.162 141.367 184.314 139.366 182.849C138.69 182.49 136.542 181.107 132.571 176.794C128.405 172.271 126.511 165.016 126.04 161.533V89.953Z" fill="white"/>
<path d="M122.421 89.953L112.448 82.4881C112.448 103.749 112.466 147.134 112.537 150.584C112.625 154.897 114.855 158.744 116.773 162.03C118.273 164.602 122.215 167.919 124.098 169.164C123.833 168.196 123.054 165.855 122.774 164.104C122.51 162.445 122.362 159.736 122.421 158.63V89.953Z" fill="white"/>
<path d="M176.081 145.774C179.158 142.909 185.301 137.174 185.347 137.066C185.348 137.065 185.348 137.065 185.348 137.065C185.348 137.063 185.348 137.063 185.347 137.066C185.338 137.182 185.026 142.783 181.817 147.184C179.205 150.767 176.022 153.321 174.757 154.151C175.345 152.575 176.434 148.693 176.081 145.774Z" fill="white"/>
<path d="M199.645 145.774L189.76 136.318C189.202 138.917 187.536 144.944 185.348 148.262C182.612 152.409 179.258 156.141 170.786 160.454C164.007 163.905 152.428 163.385 147.486 162.694C149.457 165.21 154.794 170.574 160.371 171.901C167.344 173.559 178.938 174.012 187.819 167.919C196.644 161.865 199.792 150.833 199.645 145.774Z" fill="white"/>
<path d="M290.258 146H275.961V79.9062H290.258V146ZM291.547 58.8125C291.547 61.1562 290.727 63.1484 289.086 64.7891C287.445 66.3516 285.453 67.1328 283.109 67.1328C280.766 67.1328 278.773 66.3125 277.133 64.6719C275.57 63.0312 274.789 61.0781 274.789 58.8125C274.789 56.4688 275.609 54.4766 277.25 52.8359C278.891 51.1953 280.844 50.375 283.109 50.375C285.453 50.375 287.445 51.1953 289.086 52.8359C290.727 54.4766 291.547 56.4688 291.547 58.8125ZM334.203 146.586C329.828 146.586 326 145.648 322.719 143.773C319.438 141.82 316.703 139.242 314.516 136.039C312.328 132.836 310.727 129.164 309.711 125.023C308.695 120.883 308.188 116.547 308.188 112.016C308.188 105.922 309.008 100.805 310.648 96.6641C312.367 92.5234 314.516 89.1641 317.094 86.5859C319.75 83.9297 322.68 82.0547 325.883 80.9609C329.164 79.8672 332.367 79.3203 335.492 79.3203C337.914 79.3203 340.219 79.5938 342.406 80.1406C344.594 80.6875 346.586 81.4688 348.383 82.4844V94.9062C347.133 93.5 345.648 92.3672 343.93 91.5078C342.289 90.6484 340.492 90.2188 338.539 90.2188C336.195 90.2188 334.047 90.8438 332.094 92.0938C330.219 93.2656 328.617 94.8672 327.289 96.8984C325.961 98.9297 324.945 101.312 324.242 104.047C323.539 106.781 323.188 109.672 323.188 112.719C323.188 115.844 323.539 118.812 324.242 121.625C325.023 124.359 326.078 126.742 327.406 128.773C328.812 130.805 330.453 132.445 332.328 133.695C334.281 134.867 336.43 135.453 338.773 135.453C340.727 135.453 342.484 135.062 344.047 134.281C345.609 133.422 347.055 132.328 348.383 131V143.188C346.508 144.125 344.359 144.945 341.938 145.648C339.516 146.273 336.938 146.586 334.203 146.586ZM367.367 79.9062L367.25 146C366.938 150.766 365.961 154.828 364.32 158.188C362.758 161.547 360.727 164.32 358.227 166.508C355.727 168.695 352.836 170.258 349.555 171.195C346.273 172.133 342.758 172.602 339.008 172.602C334.633 172.602 330.297 171.82 326 170.258C321.781 168.773 318.266 166.234 315.453 162.641L323.656 154.555C324.438 155.883 325.414 156.977 326.586 157.836C327.836 158.695 329.086 159.359 330.336 159.828C331.664 160.297 332.953 160.609 334.203 160.766C335.531 161 336.703 161.117 337.719 161.117C342.562 161.117 346.352 159.711 349.086 156.898C351.82 154.086 353.188 149.281 353.188 142.484V86.5859L354.711 79.9062H367.367ZM402.875 79.9062L404.398 86.5859V146H390.219V79.9062H402.875ZM439.438 87.1719C440.766 88.5 441.781 90.0625 442.484 91.8594C443.266 93.5781 443.812 95.4141 444.125 97.3672C444.516 99.2422 444.75 101.156 444.828 103.109C444.906 105.062 444.945 106.977 444.945 108.852V143.656V146H430.648V110.023C430.648 107.367 430.531 104.828 430.297 102.406C430.062 99.9844 429.516 97.8359 428.656 95.9609C427.797 94.0859 426.625 92.6406 425.141 91.625C423.656 90.5312 421.586 89.9844 418.93 89.9844C417.836 89.9844 416.352 90.1797 414.477 90.5703C412.68 90.8828 410.922 91.4297 409.203 92.2109V83.1875C411.312 82.0938 413.578 81.1562 416 80.375C418.5 79.5938 420.922 79.2031 423.266 79.2031C426.781 79.2031 429.75 79.9453 432.172 81.4297C434.594 82.8359 437.016 84.75 439.438 87.1719ZM478.695 146H464.398V79.9062H478.695V146ZM479.984 58.8125C479.984 61.1562 479.164 63.1484 477.523 64.7891C475.883 66.3516 473.891 67.1328 471.547 67.1328C469.203 67.1328 467.211 66.3125 465.57 64.6719C464.008 63.0312 463.227 61.0781 463.227 58.8125C463.227 56.4688 464.047 54.4766 465.688 52.8359C467.328 51.1953 469.281 50.375 471.547 50.375C473.891 50.375 475.883 51.1953 477.523 52.8359C479.164 54.4766 479.984 56.4688 479.984 58.8125ZM517.484 125.961C517.484 128.617 517.836 130.688 518.539 132.172C519.242 133.656 520.219 134.789 521.469 135.57C522.797 136.352 524.242 136.859 525.805 137.094C527.445 137.25 529.164 137.328 530.961 137.328V146C529.945 146.156 528.93 146.273 527.914 146.352C527.055 146.43 526 146.469 524.75 146.469C523.578 146.547 522.406 146.586 521.234 146.586C520.062 146.586 518.852 146.547 517.602 146.469C516.43 146.391 515.414 146.273 514.555 146.117C511.898 145.648 509.828 144.516 508.344 142.719C506.859 140.844 505.727 138.812 504.945 136.625C504.242 134.359 503.773 132.172 503.539 130.062C503.383 127.953 503.305 126.312 503.305 125.141V89.5156H494.633V79.9062H503.305V61.1562H517.484V79.9062H528.031V89.5156H517.484V125.961ZM561.781 146H547.484V79.9062H561.781V146ZM563.07 58.8125C563.07 61.1562 562.25 63.1484 560.609 64.7891C558.969 66.3516 556.977 67.1328 554.633 67.1328C552.289 67.1328 550.297 66.3125 548.656 64.6719C547.094 63.0312 546.312 61.0781 546.312 58.8125C546.312 56.4688 547.133 54.4766 548.773 52.8359C550.414 51.1953 552.367 50.375 554.633 50.375C556.977 50.375 558.969 51.1953 560.609 52.8359C562.25 54.4766 563.07 56.4688 563.07 58.8125ZM612.758 79.5547C617.055 79.7891 620.961 80.8438 624.477 82.7188C627.992 84.5156 630.922 86.9375 633.266 89.9844C635.688 92.9531 637.562 96.4297 638.891 100.414C640.219 104.398 640.883 108.656 640.883 113.188C640.883 117.719 640.18 121.977 638.773 125.961C637.445 129.867 635.57 133.305 633.148 136.273C630.727 139.164 627.758 141.508 624.242 143.305C620.727 145.102 616.898 146.156 612.758 146.469V135.219C616.664 134.359 619.828 131.898 622.25 127.836C624.75 123.773 626 118.891 626 113.188C626 110.297 625.688 107.602 625.062 105.102C624.516 102.523 623.656 100.219 622.484 98.1875C621.312 96.1562 619.906 94.4766 618.266 93.1484C616.625 91.8203 614.789 90.9609 612.758 90.5703V79.5547ZM580.062 112.953C580.062 108.422 580.727 104.203 582.055 100.297C583.383 96.3906 585.258 92.9922 587.68 90.1016C590.18 87.1328 593.148 84.75 596.586 82.9531C600.023 81.1562 603.812 80.0625 607.953 79.6719V90.5703C604.047 91.4297 600.922 93.8906 598.578 97.9531C596.234 102.016 595.062 106.898 595.062 112.602C595.062 115.492 595.336 118.227 595.883 120.805C596.508 123.383 597.367 125.688 598.461 127.719C599.555 129.75 600.883 131.43 602.445 132.758C604.086 134.086 605.922 134.906 607.953 135.219V146.469C603.656 146.156 599.789 145.102 596.352 143.305C592.914 141.43 589.984 139.008 587.562 136.039C585.141 133.07 583.266 129.594 581.938 125.609C580.688 121.625 580.062 117.406 580.062 112.953ZM671.938 79.9062L673.461 86.5859V146H659.281V79.9062H671.938ZM708.5 87.1719C709.828 88.5 710.844 90.0625 711.547 91.8594C712.328 93.5781 712.875 95.4141 713.188 97.3672C713.578 99.2422 713.812 101.156 713.891 103.109C713.969 105.062 714.008 106.977 714.008 108.852V143.656V146H699.711V110.023C699.711 107.367 699.594 104.828 699.359 102.406C699.125 99.9844 698.578 97.8359 697.719 95.9609C696.859 94.0859 695.688 92.6406 694.203 91.625C692.719 90.5312 690.648 89.9844 687.992 89.9844C686.898 89.9844 685.414 90.1797 683.539 90.5703C681.742 90.8828 679.984 91.4297 678.266 92.2109V83.1875C680.375 82.0938 682.641 81.1562 685.062 80.375C687.562 79.5938 689.984 79.2031 692.328 79.2031C695.844 79.2031 698.812 79.9453 701.234 81.4297C703.656 82.8359 706.078 84.75 708.5 87.1719Z" fill="url(#paint1_linear_44_2098)"/>
<defs>
<linearGradient id="paint0_linear_44_2098" x1="81.9" y1="17.5" x2="183.6" y2="196.6" gradientUnits="userSpaceOnUse">
<stop offset="0.0398221" stop-color="#AE98D6"/>
<stop offset="1" stop-color="#9155FD"/>
</linearGradient>
<linearGradient id="paint1_linear_44_2098" x1="471.009" y1="22" x2="479.478" y2="212.775" gradientUnits="userSpaceOnUse">
<stop offset="0.0660662" stop-color="#AE98D6"/>
<stop offset="1" stop-color="#9155FD"/>
</linearGradient>
</defs>
</svg>
